<?xml version="1.0" standalone="no"?>
<!DOCTYPE svg PUBLIC "-//W3C//DTD SVG 20010904//EN"
 "http://www.w3.org/TR/2001/REC-SVG-20010904/DTD/svg10.dtd">
<svg version="1.0" xmlns="http://www.w3.org/2000/svg"
 width="640.000000pt" height="640.000000pt" viewBox="0 0 640.000000 640.000000"
 preserveAspectRatio="xMidYMid meet">

<g transform="translate(0.000000,640.000000) scale(0.100000,-0.100000)"
fill="#000000" stroke="none">
<path d="M2897 4369 c-8 -5 -50 -62 -93 -126 -84 -128 -111 -169 -210 -315
-67 -99 -76 -130 -43 -151 9 -6 23 -7 32 -4 9 3 84 109 167 234 84 125 158
229 165 231 8 2 22 -9 32 -25 10 -15 22 -32 28 -38 6 -5 28 -37 50 -70 22 -33
50 -73 62 -90 32 -41 34 -44 66 -92 33 -47 50 -57 78 -43 23 13 25 48 4 76 -8
10 -15 24 -15 29 0 6 26 39 58 74 l57 63 110 -142 c61 -79 127 -161 148 -183
35 -37 38 -39 60 -25 12 9 23 22 25 30 3 14 -81 133 -160 228 -16 19 -32 40
-36 45 -63 88 -112 146 -132 155 -26 12 -37 3 -148 -123 -38 -43 -47 -45 -63
-15 -6 12 -16 27 -20 32 -35 44 -63 82 -113 158 -58 86 -79 103 -109 87z"/>
<path d="M2542 3648 c-7 -7 -12 -21 -12 -33 0 -45 -5 -45 570 -45 517 0 548 1
563 18 21 23 21 36 1 56 -14 14 -79 16 -563 16 -412 0 -550 -3 -559 -12z"/>
<path d="M337 3543 c-4 -3 -7 -30 -7 -60 l0 -53 1035 0 1035 0 0 60 0 60
-1028 0 c-566 0 -1032 -3 -1035 -7z"/>
<path d="M3804 3536 c-3 -7 -4 -33 -2 -57 l3 -44 1035 0 1035 0 0 55 0 55
-1033 3 c-874 2 -1033 0 -1038 -12z"/>
<path d="M2534 3456 c-3 -8 -4 -25 -2 -38 l3 -23 536 -5 c294 -3 548 -3 564 0
36 6 54 33 39 58 -10 16 -50 17 -573 20 -480 2 -562 0 -567 -12z"/>
<path d="M2119 2926 c-14 -9 -34 -27 -43 -41 -21 -33 -29 -32 -43 6 -7 18 -17
29 -25 27 -10 -4 -13 -73 -13 -334 l0 -329 33 -3 c29 -3 32 -1 32 25 1 15 1
123 1 238 0 116 3 230 8 254 12 62 40 95 84 99 45 4 67 -24 67 -85 0 -41 1
-43 30 -43 30 0 30 1 30 54 0 30 -4 66 -10 80 -19 51 -102 79 -151 52z"/>
<path d="M3356 2926 c-22 -8 -53 -29 -70 -46 l-31 -30 0 -263 c0 -234 2 -266
18 -290 28 -43 73 -61 152 -62 86 0 123 14 155 62 l25 37 0 252 c0 239 -1 254
-21 281 -43 59 -152 87 -228 59z m159 -82 l25 -27 0 -232 0 -233 -29 -31 c-24
-26 -37 -31 -73 -31 -66 0 -85 9 -103 46 -14 30 -16 68 -13 263 4 274 2 271
105 271 56 0 67 -3 88 -26z"/>
<path d="M4004 2933 c-12 -2 -40 -20 -62 -39 l-41 -35 -16 31 c-9 17 -20 28
-25 25 -6 -4 -10 -137 -10 -336 l0 -329 35 0 35 0 0 273 0 273 28 33 c24 29
36 35 83 39 43 3 59 0 72 -13 19 -18 19 -16 18 -349 0 -115 2 -220 5 -232 5
-18 13 -24 35 -24 l29 0 1 238 c1 403 3 392 -71 430 -42 21 -69 24 -116 15z"/>
<path d="M4523 2923 c-57 -20 -83 -58 -86 -125 l-2 -53 33 -3 c31 -3 32 -2 32
33 0 37 14 74 34 87 6 4 35 8 64 8 82 0 92 -16 92 -145 l0 -105 -82 0 c-141 0
-177 -33 -186 -167 -5 -78 10 -158 35 -186 43 -47 164 -45 210 4 34 36 51 37
59 3 4 -16 12 -24 23 -22 14 3 16 33 16 288 0 273 -1 287 -22 325 -17 32 -31
44 -70 58 -57 20 -93 21 -150 0z m167 -460 c0 -54 -4 -104 -8 -111 -20 -30
-77 -62 -113 -62 -61 0 -79 32 -79 141 0 119 9 129 120 129 l80 0 0 -97z"/>
<path d="M1544 2913 c-7 -5 -21 -53 -33 -108 -11 -55 -32 -149 -46 -210 -23
-94 -37 -157 -72 -318 -6 -27 -4 -28 28 -25 25 2 35 8 37 23 2 11 10 44 18 73
l15 52 103 0 103 0 13 -62 c17 -89 16 -88 50 -88 35 0 35 -5 -2 160 -10 47
-30 135 -43 195 -13 61 -35 155 -47 210 l-23 100 -45 3 c-25 1 -50 -1 -56 -5z
m92 -261 c48 -203 51 -192 -44 -192 -43 0 -81 2 -84 5 -2 3 4 42 14 88 10 45
27 120 37 167 10 47 22 94 27 105 8 19 9 18 12 -5 2 -14 19 -90 38 -168z"/>
<path d="M2467 2914 c-4 -4 -7 -155 -7 -336 l0 -328 35 0 35 0 -2 333 -3 332
-25 3 c-14 2 -29 0 -33 -4z"/>
<path d="M2734 2905 c-16 -40 0 -45 131 -45 69 0 125 -3 125 -7 0 -5 -17 -42
-38 -83 -202 -396 -232 -460 -232 -488 0 -37 5 -38 203 -34 l137 3 0 25 0 24
-129 0 c-72 0 -132 3 -134 8 -3 4 58 133 135 288 106 211 139 286 134 302 -7
21 -12 22 -167 22 -133 0 -161 -3 -165 -15z"/>
</g>
</svg>
